<mxfile host="app.diagrams.net" modified="2024-01-08T20:53:29.232Z" agent="Mozilla/5.0 (Macintosh; Intel Mac OS X 10.15; rv:121.0) Gecko/20100101 Firefox/121.0" etag="qwbKuqpfpDX77Z7UV8eC" version="22.1.17" type="github">
  <diagram name="Page-1" id="cdmjnjpHZPGE_iwv5dC-">
    <mxGraphModel dx="1194" dy="739" grid="1" gridSize="10" guides="1" tooltips="1" connect="1" arrows="1" fold="1" page="1" pageScale="1" pageWidth="850" pageHeight="1100" math="0" shadow="0">
      <root>
        <mxCell id="0" />
        <mxCell id="1" parent="0" />
        <mxCell id="dFBF4kmHuin_1LwsdsC2-1" value="" style="rounded=1;whiteSpace=wrap;html=1;" vertex="1" parent="1">
          <mxGeometry x="40" y="40" width="120" height="40" as="geometry" />
        </mxCell>
      </root>
    </mxGraphModel>
  </diagram>
</mxfile>
